<svg xmlns="http://www.w3.org/2000/svg" width="800" height="1000" viewBox="0 0 800 1000" version="1.1"><path d="M 395 30.211 C 391.984 31.099, 391.776 31.342, 393.498 31.971 C 395.233 32.604, 395.102 32.769, 392.498 33.219 C 390.849 33.505, 385.253 34.913, 380.062 36.348 C 369.519 39.262, 368.430 39.222, 373.208 36.096 C 378.701 32.502, 372.418 34.462, 358.578 40.661 C 352.022 43.597, 346.070 46, 345.353 46 C 338.880 46, 287.760 78.971, 285.631 84.519 C 284.648 87.082, 284.864 87.349, 286.750 85.903 C 287.712 85.165, 287.409 85.784, 286.076 87.280 C 283.765 89.873, 281.197 91.108, 282.500 89 C 282.840 88.450, 282.486 88, 281.715 88 C 279.516 88, 268.503 98.136, 268.472 100.187 C 268.433 102.822, 243.209 127.867, 241.137 127.328 C 237.199 126.305, 200.654 172.797, 181.656 203 C 171.835 218.613, 156.839 248.814, 155.875 254.920 C 155.477 257.439, 153.762 263.325, 152.064 268 C 148.968 276.520, 146.223 286.040, 145.458 290.902 C 144.464 297.224, 135.905 345.142, 133.474 358 C 133.214 359.375, 130.284 375.125, 126.963 393 C 117.654 443.098, 107.804 487.228, 95.823 532.500 C 92.475 545.150, 89.065 558.087, 88.245 561.250 C 87.425 564.412, 86.333 567, 85.818 567 C 85.303 567, 85.155 567.442, 85.489 567.983 C 86.179 569.099, 79.517 592.405, 71.397 617.281 C 64.049 639.793, 63.232 655.044, 69.503 652.637 C 70.255 652.349, 71.012 652.432, 71.185 652.823 C 71.358 653.214, 73.975 655.307, 77 657.473 C 96.519 671.453, 106.091 684.835, 110.638 704.500 C 112.896 714.263, 113.076 745.717, 110.882 747.073 C 104.259 751.166, 113.433 788.835, 125.979 809.063 C 128.741 813.515, 131 817.357, 131 817.601 C 131 818.363, 136.256 826.179, 142.343 834.467 C 148.488 842.835, 153.894 852.772, 157.321 862 C 159.126 866.858, 159.440 870.768, 160.015 895.500 C 160.731 926.238, 160.817 926.721, 168.324 941.937 C 172.839 951.087, 182.444 955.730, 190.482 952.645 C 191.328 952.321, 192.129 952.134, 192.260 952.232 C 192.948 952.739, 198.815 948.510, 198.387 947.817 C 198.109 947.367, 198.584 947, 199.441 947 C 200.298 947, 201 946.475, 201 945.833 C 201 945.192, 201.260 944.927, 201.579 945.245 C 201.897 945.564, 204.484 943.608, 207.329 940.900 C 217.358 931.350, 247.760 918.261, 269.845 913.985 C 292.851 909.530, 306.100 909.357, 340.413 913.065 C 350.739 914.180, 365.347 915, 374.904 915 C 394.985 915, 407 916.580, 407 919.221 C 407 920.199, 407.450 921, 408 921 C 408.550 921, 409 920.145, 409 919.099 C 409 917.328, 410.178 917.157, 426.250 916.593 C 454.451 915.603, 466.440 914.863, 467.500 914.047 C 473.480 909.438, 515.657 909.435, 539.450 914.042 C 559.482 917.920, 589.261 930.294, 599.196 938.867 C 621.423 958.047, 632.167 958.239, 641.259 939.620 C 648.321 925.159, 648.968 921.369, 648.985 894.355 C 649.005 863.548, 651.435 855.663, 668.151 832.173 C 672.193 826.494, 675.500 821.539, 675.500 821.163 C 675.500 820.787, 677.928 816.695, 680.894 812.070 C 691.109 796.146, 695.604 784.240, 699.042 764 C 700.422 755.876, 700.427 750.642, 699.055 750.185 C 698.475 749.992, 698 749.196, 698 748.417 C 698 747.638, 697.663 747, 697.250 747 C 690.565 746.996, 699.184 694.761, 708.161 680.872 C 715.552 669.437, 735.301 652.786, 740.231 653.832 C 746.016 655.060, 744.721 638.971, 737.186 616 C 729.345 592.098, 722.785 569.157, 723.472 568.045 C 723.769 567.564, 723.627 567.020, 723.157 566.835 C 719.640 565.457, 693.683 455.328, 681.007 388 C 678.781 376.175, 676.727 365.375, 676.443 364 C 674.221 353.247, 673 345.030, 673 340.831 C 673 337.588, 672.633 336.109, 671.936 336.539 C 671.219 336.983, 671.085 336.065, 671.525 333.720 C 672.300 329.586, 670.675 315.162, 667.967 302.138 C 666.896 296.990, 666.267 292.377, 666.569 291.888 C 666.871 291.400, 666.615 291, 666 291 C 665.385 291, 665.175 290.525, 665.534 289.946 C 666.130 288.980, 664.163 282.385, 657.196 262 C 655.786 257.875, 653.822 253.435, 652.830 252.132 C 651.839 250.830, 651.284 249.350, 651.598 248.842 C 652.528 247.337, 637.863 218.597, 628.462 203.500 C 614.649 181.320, 590.993 149.233, 587.185 147.513 C 585.983 146.970, 585 145.772, 585 144.852 C 585 143.931, 583.538 141.947, 581.750 140.443 C 579.962 138.939, 578.629 137.533, 578.786 137.318 C 579.246 136.691, 576.288 134.045, 575.740 134.594 C 575.465 134.868, 573.799 133.271, 572.037 131.046 C 570.274 128.821, 568.145 127, 567.305 127 C 564.929 127, 539.451 101.983, 539.790 99.983 C 539.950 99.037, 538.936 97.533, 537.507 96.597 C 536.079 95.661, 535.241 94.419, 535.623 93.802 C 536.039 93.129, 535.853 92.973, 535.153 93.406 C 534.449 93.841, 533.615 93.118, 533.023 91.560 C 532.488 90.152, 531.476 88.994, 530.775 88.986 C 530.074 88.979, 528.417 88.683, 527.094 88.329 C 525.263 87.839, 524.881 87.999, 525.498 88.997 C 526.039 89.872, 525.920 90.068, 525.139 89.586 C 524.496 89.189, 523.320 87.307, 522.525 85.406 C 520.840 81.372, 511.589 72, 509.292 72 C 507.030 72, 489.072 59.692, 489.746 58.603 C 490.055 58.101, 489.800 58.006, 489.177 58.391 C 488.554 58.775, 485.551 57.495, 482.503 55.545 C 479.455 53.595, 476.520 52, 475.981 52 C 475.441 52, 475 51.562, 475 51.026 C 475 48.701, 458.181 42.637, 455.843 44.118 C 454.739 44.818, 454.752 44.972, 455.917 44.985 C 456.696 44.993, 457.098 45.236, 456.810 45.524 C 455.964 46.369, 452.959 44.875, 453.558 43.907 C 453.858 43.421, 453.429 43.282, 452.603 43.599 C 450.600 44.368, 442.737 39.663, 443.968 38.432 C 444.544 37.856, 443.972 37.062, 442.470 36.354 C 440.303 35.331, 440.141 35.395, 440.972 36.947 C 441.855 38.598, 441.639 38.599, 436.701 36.968 C 433.841 36.023, 430.825 35.582, 430 35.989 C 427.959 36.994, 418 34.061, 418 32.455 C 418 29.630, 402.207 28.089, 395 30.211 M 400.908 44.520 C 400.072 45.356, 395.363 47.125, 390.444 48.450 C 362.705 55.923, 309 82.119, 309 88.175 C 309 89.724, 335.434 101.808, 346.500 105.318 C 394.756 120.624, 450.994 114.877, 492.819 90.366 C 502.081 84.938, 453.817 58.741, 415.620 48.464 C 410.736 47.150, 405.976 45.383, 405.041 44.537 C 402.945 42.640, 402.789 42.640, 400.908 44.520 M 281.839 111.849 C 271.734 122.476, 267.799 127.221, 249.369 151 C 207.805 204.630, 189.196 234.301, 170.972 276 C 152.159 319.045, 137.534 377.693, 141.019 396.114 C 146.358 424.341, 159.511 442.703, 185.500 458.210 C 186.137 458.590, 186.532 455.299, 186.587 449.154 C 186.667 440.196, 187.231 437.588, 194.400 413 C 200.448 392.256, 202.421 383.864, 203.483 374.367 C 205.191 359.100, 206.536 356.425, 217.520 346.453 C 229.400 335.667, 229.307 335.901, 229.992 315 C 230.558 297.681, 230.601 297.416, 234.136 289.332 C 237.709 281.164, 237.709 281.164, 234.104 283.497 C 232.122 284.780, 228.014 286.329, 224.975 286.939 C 211.376 289.669, 205.873 298.828, 198.497 331 C 194.865 346.843, 183 369.471, 183 360.554 C 183 346.367, 254.576 152.458, 255.819 163.278 C 256.279 167.282, 251.403 185.924, 246.999 197 C 238.317 218.830, 237.777 226.317, 243.996 238.605 C 246.193 242.947, 247.993 247.287, 247.996 248.250 C 248.018 257.075, 251.715 242.996, 254.496 223.500 C 257.597 201.752, 264.719 196.011, 283.574 200.057 C 289.522 201.333, 292.426 201.884, 294.750 202.176 C 295.438 202.263, 296 202.669, 296 203.079 C 296 204.391, 316.992 208.864, 332.874 210.936 C 363.923 214.987, 367.801 221.244, 362.995 259.528 C 359.340 288.643, 358.450 312.253, 360.464 326.663 C 362.658 342.364, 360.975 353.425, 355.917 356.552 C 350.017 360.198, 347.157 373.664, 350.557 381.782 C 354.799 391.907, 352.910 412.937, 344.276 451.699 C 343.808 453.801, 343.955 453.851, 347.637 452.835 C 358.195 449.919, 373.750 454.022, 381.176 461.680 C 384.500 465.108, 384.500 465.108, 384.831 487.963 C 385.162 510.818, 385.162 510.818, 395.175 511.159 C 425.148 512.180, 423.646 513.386, 424.248 487.823 C 424.872 461.333, 424.525 462.251, 436.360 455.831 C 442.183 452.672, 443.029 452.500, 452.760 452.500 C 461.277 452.500, 462.926 452.255, 462.468 451.060 C 456.311 434.978, 452.529 392.124, 456.443 382.782 C 459.843 374.664, 456.983 361.198, 451.083 357.552 C 446.025 354.425, 444.342 343.364, 446.536 327.663 C 448.550 313.253, 447.660 289.643, 444.005 260.528 C 439.221 222.417, 443.668 215.285, 474.590 211.480 C 490.990 209.461, 494.026 208.825, 516.895 202.617 C 543.110 195.501, 550.775 199.406, 553.952 221.500 C 557.667 247.328, 557.761 247.526, 562.313 239.139 C 568.780 227.225, 568.493 217.665, 561.110 199 C 553.020 178.549, 548.108 156.965, 552.555 161.413 C 560.900 169.758, 627.741 352.814, 625.743 361.852 C 624.462 367.645, 612.211 346.376, 608.954 332.704 C 600.657 297.874, 596.158 289.790, 583.273 286.553 C 579.671 285.648, 575.417 284.233, 573.821 283.407 C 570.919 281.907, 570.919 281.907, 573.386 286.775 C 577.725 295.337, 579.016 302.527, 578.746 316.629 C 578.429 333.191, 580.319 337.801, 590.942 346.384 C 601.965 355.290, 603.980 359.507, 605.812 377.500 C 606.547 384.713, 608.926 394.773, 614.348 413.591 C 622.329 441.295, 623.836 449.312, 622.186 455.289 C 620.871 460.051, 621.215 459.993, 630.622 453.880 C 650.315 441.082, 656.497 432.401, 663.475 407.748 C 673.862 371.053, 648.979 282.514, 612.957 227.996 C 591.269 195.173, 545.593 135.278, 527.579 116.041 C 513.630 101.147, 515.925 101.778, 501.201 108.779 C 437.855 138.899, 366.689 138.453, 305.008 107.548 C 291.108 100.584, 292.859 100.259, 281.839 111.849 M 402.598 189.750 C 401.849 198.547, 400.062 251.566, 400.025 266.103 C 400 275.706, 400 275.706, 395.047 275.231 C 389.522 274.700, 382.082 278.110, 379.909 282.171 C 374.864 291.597, 373.922 328.276, 378.636 331.723 C 383.147 335.021, 393.131 331.644, 397.387 325.381 C 399.842 321.768, 399.842 321.768, 400.171 373.801 C 400.691 456.026, 405.181 438.674, 408.601 341.222 C 409.277 321.944, 409.277 321.944, 411.673 325.469 C 415.873 331.650, 425.883 335, 430.364 331.723 C 435.078 328.276, 434.136 291.597, 429.091 282.171 C 426.918 278.110, 419.478 274.700, 413.953 275.231 C 409 275.706, 409 275.706, 408.979 265.103 C 408.922 236.394, 405.663 182, 404 182 C 403.592 182, 402.961 185.488, 402.598 189.750 M 275.415 224.375 C 269.231 227.161, 267.147 231.675, 262.896 251.500 C 261.717 257, 257.883 271.307, 254.376 283.294 C 244.200 318.076, 245.754 321.821, 274 330.604 C 292.115 336.236, 293.795 336.836, 306.500 342.209 C 333.874 353.786, 338.081 349.777, 338.050 312.147 C 338.032 290.568, 338.663 285.686, 344.034 265.855 C 351.561 238.062, 348.710 232.897, 325.094 231.543 C 311.991 230.792, 306.851 229.937, 294.982 226.538 C 283.256 223.179, 279.092 222.719, 275.415 224.375 M 522.500 224.656 C 521.400 224.943, 516.675 226.257, 512 227.577 C 500.188 230.913, 495.159 231.753, 482.500 232.505 C 459.275 233.886, 457.011 238.372, 465.090 267.005 C 469.179 281.500, 469.179 281.500, 469.971 307.500 C 471.312 351.552, 473.766 354.222, 502.092 342.459 C 509.467 339.396, 520.900 335.277, 527.500 333.305 C 562.183 322.939, 563.331 320.463, 551.736 281 C 548.100 268.625, 544.240 253.775, 543.158 248 C 539.431 228.111, 533.775 221.719, 522.500 224.656 M 231.071 348.752 C 223.064 352.835, 222.956 353.107, 201.423 423.468 C 190.092 460.493, 194.178 468.961, 228.436 479.446 C 233.351 480.950, 245.501 485.544, 255.436 489.654 C 293.318 505.327, 314.266 508.636, 322.278 500.212 C 325.801 496.508, 326.122 494.619, 326.324 476.387 C 326.500 460.500, 326.500 460.500, 332.237 448.500 C 337.364 437.776, 340.803 427.026, 339.121 426.985 C 338.779 426.976, 339.114 426.581, 339.864 426.105 C 342.738 424.285, 341.956 396.802, 338.774 387.808 C 331.469 367.158, 324.567 362.572, 296.108 359.462 C 282.501 357.976, 271.302 355.456, 252.137 349.569 C 242.362 346.566, 235.852 346.314, 231.071 348.752 M 560.500 348.717 C 559.400 348.984, 554.675 350.482, 550 352.045 C 536.115 356.689, 526.339 358.799, 511 360.462 C 486.114 363.162, 480.264 366.079, 473.747 379.037 C 463.691 399.031, 464.525 423.565, 476.087 447.912 C 481.510 459.330, 482.480 463.942, 483.510 483.181 C 484.361 499.055, 484.689 500.045, 490.003 502.750 C 500.335 508.009, 519.921 503.926, 555.099 489.178 C 563.129 485.812, 573.479 481.898, 578.099 480.480 C 616.130 468.814, 617.728 463.715, 600.616 408.647 C 595.977 393.716, 590.580 376.325, 588.624 370 C 582.798 351.162, 574.938 345.215, 560.500 348.717 M 564.971 380.540 C 557.921 390.083, 551.028 395.633, 526.402 411.595 C 497.285 430.468, 495.109 432.730, 499.030 440.055 C 502.150 445.886, 503.703 445.684, 530.637 435.947 C 583.470 416.848, 577.666 419.946, 579.002 410.130 C 579.876 403.711, 581.179 399.473, 584.089 393.587 C 589.655 382.328, 587.848 377.681, 579.718 382.347 C 576.345 384.283, 575 383.784, 575 380.596 C 575 378.242, 572.221 375, 570.203 375 C 569.576 375, 567.221 377.493, 564.971 380.540 M 234.681 376.652 C 234.322 377.011, 233.746 379.431, 233.402 382.030 C 232.775 386.756, 232.775 386.756, 228.637 384.390 C 220.155 379.540, 218.528 383.636, 224.853 393.915 C 227.045 397.478, 228.222 401.279, 229.380 408.537 C 231.303 420.590, 226.365 417.511, 267.698 432.426 C 304.907 445.852, 305.352 445.948, 307.977 441.043 C 311.487 434.484, 309.107 431.301, 292.665 420.569 C 251.269 393.547, 250.091 392.642, 242.136 381.750 C 238.222 376.391, 236.274 375.059, 234.681 376.652 M 143.273 476.706 C 141.295 479.724, 141.362 478.394, 140.630 529.708 C 140.377 547.422, 139.868 562.405, 139.498 563.003 C 139.128 563.601, 138.681 579.483, 138.505 598.295 C 138.304 619.601, 137.587 638.534, 136.603 648.500 C 135.735 657.300, 135.012 671.475, 134.998 680 C 134.960 703.276, 132.292 731.772, 127.179 763.500 C 126.427 768.169, 128.535 779.853, 130.776 783.433 C 131.143 784.020, 131.541 785.175, 131.659 786 C 133.417 798.227, 167.491 842.819, 170.179 836.410 C 184.818 801.507, 220.690 658.962, 223.632 624 C 227.422 578.973, 227.964 576.781, 236.852 570.539 C 246.536 563.739, 263.799 567.549, 274.140 578.768 C 279.681 584.779, 279.279 707.257, 273.419 798.500 C 267.302 893.749, 267.771 895.446, 302.414 903.450 C 331.863 910.254, 393.193 909.140, 400.668 901.666 C 400.933 901.400, 401.345 884.604, 401.584 864.342 C 401.822 844.079, 402.093 821.076, 402.185 813.225 C 402.298 803.564, 402.699 799.066, 403.426 799.308 C 404.585 799.695, 404.614 800.636, 405.366 862 C 405.919 907.173, 405.767 903.262, 406.935 902.540 C 407.449 902.222, 413.412 903.081, 420.185 904.448 C 455.796 911.635, 487.642 909.602, 523.894 897.826 C 537.213 893.500, 538.702 878.233, 533.581 798.500 C 527.721 707.257, 527.319 584.779, 532.860 578.768 C 545.934 564.584, 568.304 563.053, 577.109 575.741 C 581.857 582.581, 582.033 583.809, 586.508 641 C 588.153 662.030, 593.585 682.534, 636.115 828.250 C 638.897 837.783, 642.047 836.443, 655.495 820.006 C 675.825 795.157, 681.538 776.698, 677.672 748.353 C 676.258 737.984, 674.618 720.275, 674.028 709 C 673.437 697.725, 672.547 680.850, 672.049 671.500 C 671.551 662.150, 670.621 650.225, 669.982 645 C 669.343 639.775, 668.657 620.875, 668.458 603 C 668.259 585.125, 667.799 568.250, 667.435 565.500 C 667.071 562.750, 666.591 547.900, 666.367 532.500 C 665.714 487.540, 665.437 480.632, 664.191 478.331 C 663.277 476.644, 663.292 476.058, 664.258 475.697 C 665.062 475.396, 664.829 474.957, 663.595 474.450 C 660.735 473.275, 654.948 476.841, 643 487.143 C 630.127 498.244, 619.911 505.086, 605.399 512.328 C 587.455 521.282, 579.836 523.600, 529.946 535.284 C 514.692 538.857, 508.778 541.939, 501 550.372 C 482.054 570.914, 479.395 572.479, 463.500 572.449 C 455.950 572.435, 450.801 571.893, 447.083 570.719 C 443.649 569.635, 438.654 569.041, 433.441 569.097 C 423.533 569.205, 421.677 568.335, 418.754 562.217 C 417.079 558.711, 415.473 557.009, 412.500 555.587 C 410.300 554.535, 407.659 553.261, 406.632 552.755 C 405.427 552.162, 404.380 552.220, 403.682 552.918 C 403.087 553.513, 401.768 554, 400.750 554 C 396.954 554, 392.986 557.093, 390.507 561.987 C 387.325 568.266, 385.402 569.240, 376.452 569.105 C 372.126 569.040, 365.591 569.853, 360.337 571.109 C 353.672 572.704, 349.524 573.103, 343.461 572.735 C 330.518 571.950, 326.493 569.338, 309 550.372 C 301.222 541.939, 295.308 538.857, 280.054 535.284 C 230.622 523.707, 222.390 521.222, 205.597 512.802 C 191.204 505.586, 181.272 498.978, 167.172 487.236 C 150.097 473.018, 146.677 471.511, 143.273 476.706 M 121.554 521.915 C 120.149 524.140, 119 526.367, 119 526.863 C 119 527.360, 118.055 528.014, 116.899 528.316 C 115.743 528.619, 115.095 529.345, 115.458 529.933 C 115.821 530.520, 115.752 531, 115.304 531 C 114.856 531, 113.418 533.813, 112.108 537.250 C 110.799 540.688, 106.627 550.004, 102.838 557.954 C 96.921 570.368, 93.316 580.207, 92.562 586 C 92.455 586.825, 92.081 588.625, 91.730 590 C 91.159 592.243, 90.156 599.023, 89.579 604.550 C 89.461 605.678, 89.114 607.028, 88.809 607.550 C 88.503 608.073, 88.356 609.625, 88.481 611 C 88.607 612.375, 88.346 614.488, 87.901 615.695 C 87.456 616.902, 86.837 623.368, 86.527 630.063 C 85.871 644.216, 86.356 645.154, 96.134 648.616 C 99.820 649.922, 103.547 652.470, 108.275 656.916 C 119.160 667.156, 119.886 665.052, 119.970 623 C 120.028 594.099, 121.580 568.713, 124.678 546 C 127.937 522.109, 126.828 513.560, 121.554 521.915 M 682 525.826 C 682 527.930, 682.676 534.469, 683.503 540.356 C 686.924 564.731, 688.229 584.027, 688.921 620.500 C 689.775 665.514, 690.307 667.714, 697.990 658.012 C 700.216 655.202, 703.574 652.872, 709.362 650.122 C 728.244 641.152, 726.984 609.048, 705.747 558 C 693.477 528.506, 682 512.956, 682 525.826 M 244.035 576.306 C 235.237 579.336, 234.022 587.845, 239.643 607.052 C 244.991 625.329, 245.333 641.221, 241.102 675 C 237.429 704.329, 236.321 716.595, 235.547 736.500 C 235.226 744.750, 234.253 769.725, 233.383 792 C 231.794 832.722, 231.976 855.502, 234.140 887 C 234.726 895.525, 235.272 902.555, 235.353 902.621 C 235.584 902.812, 258.471 899.827, 258.746 899.571 C 260.973 897.493, 264.650 854.971, 265.497 821.500 C 265.817 808.850, 266.730 782.975, 267.526 764 C 269.705 712.038, 272.504 627.938, 272.469 615.500 C 272.389 587.231, 260.379 570.677, 244.035 576.306 M 551.121 577.121 C 538.416 583.549, 535.357 597.444, 536.948 641.500 C 537.544 658, 538.456 685.225, 538.976 702 C 539.496 718.775, 540.607 749.825, 541.446 771 C 542.284 792.175, 543.431 822.100, 543.994 837.500 C 544.945 863.492, 546.383 879.803, 548.950 893.688 C 550.926 904.378, 571.450 906.016, 572.349 895.556 C 574.494 870.617, 575.207 835.374, 574.127 807.707 C 573.500 791.643, 572.533 765.900, 571.978 750.500 C 570.789 717.519, 569.998 707.698, 565.900 675 C 561.667 641.224, 562.008 625.333, 567.357 607.052 C 574.657 582.109, 567.466 568.851, 551.121 577.121 M 228.859 670.500 C 222.945 685.023, 197.590 780.574, 192.526 807.423 C 182.163 862.366, 178.009 943.820, 185.934 936.672 C 194.613 928.845, 209.708 920.541, 218.950 918.511 C 222 917.841, 222 917.841, 222.001 841.171 C 222.001 754.400, 222.605 738.997, 227.573 699.129 C 231.361 668.723, 231.581 663.814, 228.859 670.500 M 578 672.307 C 578 673.209, 579.333 684.421, 580.963 697.223 C 586.116 737.705, 586.185 739.311, 586.704 830.708 C 587.198 917.916, 587.198 917.916, 592.456 919.444 C 601.685 922.127, 613.687 928.795, 618.996 934.188 C 625.547 940.843, 625.434 941.349, 624.693 908.628 C 623.538 857.583, 618.331 818.884, 606.357 772.351 C 603.265 760.333, 600.256 748.362, 599.670 745.750 C 599.084 743.138, 598.217 741, 597.744 741 C 597.270 741, 597.121 740.614, 597.413 740.141 C 598.140 738.964, 579.867 672.535, 578.416 671.083 C 578.187 670.854, 578 671.405, 578 672.307" stroke="none" fill="#060606" fill-rule="evenodd"/><path d="M 400.908 44.520 C 400.072 45.356, 395.363 47.125, 390.444 48.450 C 362.705 55.923, 309 82.119, 309 88.175 C 309 89.724, 335.434 101.808, 346.500 105.318 C 394.756 120.624, 450.994 114.877, 492.819 90.366 C 502.081 84.938, 453.817 58.741, 415.620 48.464 C 410.736 47.150, 405.976 45.383, 405.041 44.537 C 402.945 42.640, 402.789 42.640, 400.908 44.520 M 281.839 111.849 C 271.734 122.476, 267.799 127.221, 249.369 151 C 207.805 204.630, 189.196 234.301, 170.972 276 C 152.159 319.045, 137.534 377.693, 141.019 396.114 C 146.358 424.341, 159.511 442.703, 185.500 458.210 C 186.137 458.590, 186.532 455.299, 186.587 449.154 C 186.667 440.196, 187.231 437.588, 194.400 413 C 200.448 392.256, 202.421 383.864, 203.483 374.367 C 205.191 359.100, 206.536 356.425, 217.520 346.453 C 229.400 335.667, 229.307 335.901, 229.992 315 C 230.558 297.681, 230.601 297.416, 234.136 289.332 C 237.709 281.164, 237.709 281.164, 234.104 283.497 C 232.122 284.780, 228.014 286.329, 224.975 286.939 C 211.376 289.669, 205.873 298.828, 198.497 331 C 194.865 346.843, 183 369.471, 183 360.554 C 183 346.367, 254.576 152.458, 255.819 163.278 C 256.279 167.282, 251.403 185.924, 246.999 197 C 238.317 218.830, 237.777 226.317, 243.996 238.605 C 246.193 242.947, 247.993 247.287, 247.996 248.250 C 248.018 257.075, 251.715 242.996, 254.496 223.500 C 257.597 201.752, 264.719 196.011, 283.574 200.057 C 289.522 201.333, 292.426 201.884, 294.750 202.176 C 295.438 202.263, 296 202.669, 296 203.079 C 296 204.391, 316.992 208.864, 332.874 210.936 C 363.923 214.987, 367.801 221.244, 362.995 259.528 C 359.340 288.643, 358.450 312.253, 360.464 326.663 C 362.658 342.364, 360.975 353.425, 355.917 356.552 C 350.017 360.198, 347.157 373.664, 350.557 381.782 C 354.799 391.907, 352.910 412.937, 344.276 451.699 C 343.808 453.801, 343.955 453.851, 347.637 452.835 C 358.195 449.919, 373.750 454.022, 381.176 461.680 C 384.500 465.108, 384.500 465.108, 384.831 487.963 C 385.162 510.818, 385.162 510.818, 395.175 511.159 C 425.148 512.180, 423.646 513.386, 424.248 487.823 C 424.872 461.333, 424.525 462.251, 436.360 455.831 C 442.183 452.672, 443.029 452.500, 452.760 452.500 C 461.277 452.500, 462.926 452.255, 462.468 451.060 C 456.311 434.978, 452.529 392.124, 456.443 382.782 C 459.843 374.664, 456.983 361.198, 451.083 357.552 C 446.025 354.425, 444.342 343.364, 446.536 327.663 C 448.550 313.253, 447.660 289.643, 444.005 260.528 C 439.221 222.417, 443.668 215.285, 474.590 211.480 C 490.990 209.461, 494.026 208.825, 516.895 202.617 C 543.110 195.501, 550.775 199.406, 553.952 221.500 C 557.667 247.328, 557.761 247.526, 562.313 239.139 C 568.780 227.225, 568.493 217.665, 561.110 199 C 553.020 178.549, 548.108 156.965, 552.555 161.413 C 560.900 169.758, 627.741 352.814, 625.743 361.852 C 624.462 367.645, 612.211 346.376, 608.954 332.704 C 600.657 297.874, 596.158 289.790, 583.273 286.553 C 579.671 285.648, 575.417 284.233, 573.821 283.407 C 570.919 281.907, 570.919 281.907, 573.386 286.775 C 577.725 295.337, 579.016 302.527, 578.746 316.629 C 578.429 333.191, 580.319 337.801, 590.942 346.384 C 601.965 355.290, 603.980 359.507, 605.812 377.500 C 606.547 384.713, 608.926 394.773, 614.348 413.591 C 622.329 441.295, 623.836 449.312, 622.186 455.289 C 620.871 460.051, 621.215 459.993, 630.622 453.880 C 650.315 441.082, 656.497 432.401, 663.475 407.748 C 673.862 371.053, 648.979 282.514, 612.957 227.996 C 591.269 195.173, 545.593 135.278, 527.579 116.041 C 513.630 101.147, 515.925 101.778, 501.201 108.779 C 437.855 138.899, 366.689 138.453, 305.008 107.548 C 291.108 100.584, 292.859 100.259, 281.839 111.849 M 402.598 189.750 C 401.849 198.547, 400.062 251.566, 400.025 266.103 C 400 275.706, 400 275.706, 395.047 275.231 C 389.522 274.700, 382.082 278.110, 379.909 282.171 C 374.864 291.597, 373.922 328.276, 378.636 331.723 C 383.147 335.021, 393.131 331.644, 397.387 325.381 C 399.842 321.768, 399.842 321.768, 400.171 373.801 C 400.691 456.026, 405.181 438.674, 408.601 341.222 C 409.277 321.944, 409.277 321.944, 411.673 325.469 C 415.873 331.650, 425.883 335, 430.364 331.723 C 435.078 328.276, 434.136 291.597, 429.091 282.171 C 426.918 278.110, 419.478 274.700, 413.953 275.231 C 409 275.706, 409 275.706, 408.979 265.103 C 408.922 236.394, 405.663 182, 404 182 C 403.592 182, 402.961 185.488, 402.598 189.750 M 275.415 224.375 C 269.231 227.161, 267.147 231.675, 262.896 251.500 C 261.717 257, 257.883 271.307, 254.376 283.294 C 244.200 318.076, 245.754 321.821, 274 330.604 C 292.115 336.236, 293.795 336.836, 306.500 342.209 C 333.874 353.786, 338.081 349.777, 338.050 312.147 C 338.032 290.568, 338.663 285.686, 344.034 265.855 C 351.561 238.062, 348.710 232.897, 325.094 231.543 C 311.991 230.792, 306.851 229.937, 294.982 226.538 C 283.256 223.179, 279.092 222.719, 275.415 224.375 M 522.500 224.656 C 521.400 224.943, 516.675 226.257, 512 227.577 C 500.188 230.913, 495.159 231.753, 482.500 232.505 C 459.275 233.886, 457.011 238.372, 465.090 267.005 C 469.179 281.500, 469.179 281.500, 469.971 307.500 C 471.312 351.552, 473.766 354.222, 502.092 342.459 C 509.467 339.396, 520.900 335.277, 527.500 333.305 C 562.183 322.939, 563.331 320.463, 551.736 281 C 548.100 268.625, 544.240 253.775, 543.158 248 C 539.431 228.111, 533.775 221.719, 522.500 224.656 M 153.338 259 C 150.651 266.013, 146.799 278.468, 144.463 287.698 C 143.439 291.743, 142.214 294.632, 141.666 294.294 C 141.130 293.962, 141.006 294.201, 141.392 294.825 C 141.965 295.753, 138.180 314.478, 136.302 320 C 136.022 320.825, 135.632 323.075, 135.435 325 C 135.239 326.925, 134.409 333.225, 133.591 339 C 131.923 350.777, 130.775 370.692, 132.093 365 C 132.539 363.075, 133.154 359.925, 133.461 358 C 133.768 356.075, 134.485 352.250, 135.055 349.500 C 135.972 345.076, 144.363 297.765, 145.464 290.813 C 146.477 284.414, 152.255 265.585, 154.710 260.682 C 155.486 259.133, 155.969 256.883, 155.784 255.682 C 155.535 254.071, 154.895 254.940, 153.338 259 M 231.071 348.752 C 223.064 352.835, 222.956 353.107, 201.423 423.468 C 190.092 460.493, 194.178 468.961, 228.436 479.446 C 233.351 480.950, 245.501 485.544, 255.436 489.654 C 293.318 505.327, 314.266 508.636, 322.278 500.212 C 325.801 496.508, 326.122 494.619, 326.324 476.387 C 326.500 460.500, 326.500 460.500, 332.237 448.500 C 337.364 437.776, 340.803 427.026, 339.121 426.985 C 338.779 426.976, 339.114 426.581, 339.864 426.105 C 342.738 424.285, 341.956 396.802, 338.774 387.808 C 331.469 367.158, 324.567 362.572, 296.108 359.462 C 282.501 357.976, 271.302 355.456, 252.137 349.569 C 242.362 346.566, 235.852 346.314, 231.071 348.752 M 560.500 348.717 C 559.400 348.984, 554.675 350.482, 550 352.045 C 536.115 356.689, 526.339 358.799, 511 360.462 C 486.114 363.162, 480.264 366.079, 473.747 379.037 C 463.691 399.031, 464.525 423.565, 476.087 447.912 C 481.510 459.330, 482.480 463.942, 483.510 483.181 C 484.361 499.055, 484.689 500.045, 490.003 502.750 C 500.335 508.009, 519.921 503.926, 555.099 489.178 C 563.129 485.812, 573.479 481.898, 578.099 480.480 C 616.130 468.814, 617.728 463.715, 600.616 408.647 C 595.977 393.716, 590.580 376.325, 588.624 370 C 582.798 351.162, 574.938 345.215, 560.500 348.717 M 564.971 380.540 C 557.921 390.083, 551.028 395.633, 526.402 411.595 C 497.285 430.468, 495.109 432.730, 499.030 440.055 C 502.150 445.886, 503.703 445.684, 530.637 435.947 C 583.470 416.848, 577.666 419.946, 579.002 410.130 C 579.876 403.711, 581.179 399.473, 584.089 393.587 C 589.655 382.328, 587.848 377.681, 579.718 382.347 C 576.345 384.283, 575 383.784, 575 380.596 C 575 378.242, 572.221 375, 570.203 375 C 569.576 375, 567.221 377.493, 564.971 380.540 M 234.681 376.652 C 234.322 377.011, 233.746 379.431, 233.402 382.030 C 232.775 386.756, 232.775 386.756, 228.637 384.390 C 220.155 379.540, 218.528 383.636, 224.853 393.915 C 227.045 397.478, 228.222 401.279, 229.380 408.537 C 231.303 420.590, 226.365 417.511, 267.698 432.426 C 304.907 445.852, 305.352 445.948, 307.977 441.043 C 311.487 434.484, 309.107 431.301, 292.665 420.569 C 251.269 393.547, 250.091 392.642, 242.136 381.750 C 238.222 376.391, 236.274 375.059, 234.681 376.652 M 143.273 476.706 C 141.295 479.724, 141.362 478.394, 140.630 529.708 C 140.377 547.422, 139.868 562.405, 139.498 563.003 C 139.128 563.601, 138.681 579.483, 138.505 598.295 C 138.304 619.601, 137.587 638.534, 136.603 648.500 C 135.735 657.300, 135.012 671.475, 134.998 680 C 134.960 703.276, 132.292 731.772, 127.179 763.500 C 126.427 768.169, 128.535 779.853, 130.776 783.433 C 131.143 784.020, 131.541 785.175, 131.659 786 C 133.417 798.227, 167.491 842.819, 170.179 836.410 C 184.818 801.507, 220.690 658.962, 223.632 624 C 227.422 578.973, 227.964 576.781, 236.852 570.539 C 246.536 563.739, 263.799 567.549, 274.140 578.768 C 279.681 584.779, 279.279 707.257, 273.419 798.500 C 267.302 893.749, 267.771 895.446, 302.414 903.450 C 331.863 910.254, 393.193 909.140, 400.668 901.666 C 400.933 901.400, 401.345 884.604, 401.584 864.342 C 401.822 844.079, 402.093 821.076, 402.185 813.225 C 402.298 803.564, 402.699 799.066, 403.426 799.308 C 404.585 799.695, 404.614 800.636, 405.366 862 C 405.919 907.173, 405.767 903.262, 406.935 902.540 C 407.449 902.222, 413.412 903.081, 420.185 904.448 C 455.796 911.635, 487.642 909.602, 523.894 897.826 C 537.213 893.500, 538.702 878.233, 533.581 798.500 C 527.721 707.257, 527.319 584.779, 532.860 578.768 C 545.934 564.584, 568.304 563.053, 577.109 575.741 C 581.857 582.581, 582.033 583.809, 586.508 641 C 588.153 662.030, 593.585 682.534, 636.115 828.250 C 638.897 837.783, 642.047 836.443, 655.495 820.006 C 675.825 795.157, 681.538 776.698, 677.672 748.353 C 676.258 737.984, 674.618 720.275, 674.028 709 C 673.437 697.725, 672.547 680.850, 672.049 671.500 C 671.551 662.150, 670.621 650.225, 669.982 645 C 669.343 639.775, 668.657 620.875, 668.458 603 C 668.259 585.125, 667.799 568.250, 667.435 565.500 C 667.071 562.750, 666.591 547.900, 666.367 532.500 C 665.714 487.540, 665.437 480.632, 664.191 478.331 C 663.277 476.644, 663.292 476.058, 664.258 475.697 C 665.062 475.396, 664.829 474.957, 663.595 474.450 C 660.735 473.275, 654.948 476.841, 643 487.143 C 630.127 498.244, 619.911 505.086, 605.399 512.328 C 587.455 521.282, 579.836 523.600, 529.946 535.284 C 514.692 538.857, 508.778 541.939, 501 550.372 C 482.054 570.914, 479.395 572.479, 463.500 572.449 C 455.950 572.435, 450.801 571.893, 447.083 570.719 C 443.649 569.635, 438.654 569.041, 433.441 569.097 C 423.533 569.205, 421.677 568.335, 418.754 562.217 C 417.079 558.711, 415.473 557.009, 412.500 555.587 C 410.300 554.535, 407.659 553.261, 406.632 552.755 C 405.427 552.162, 404.380 552.220, 403.682 552.918 C 403.087 553.513, 401.768 554, 400.750 554 C 396.954 554, 392.986 557.093, 390.507 561.987 C 387.325 568.266, 385.402 569.240, 376.452 569.105 C 372.126 569.040, 365.591 569.853, 360.337 571.109 C 353.672 572.704, 349.524 573.103, 343.461 572.735 C 330.518 571.950, 326.493 569.338, 309 550.372 C 301.222 541.939, 295.308 538.857, 280.054 535.284 C 230.622 523.707, 222.390 521.222, 205.597 512.802 C 191.204 505.586, 181.272 498.978, 167.172 487.236 C 150.097 473.018, 146.677 471.511, 143.273 476.706 M 121.554 521.915 C 120.149 524.140, 119 526.367, 119 526.863 C 119 527.360, 118.055 528.014, 116.899 528.316 C 115.743 528.619, 115.095 529.345, 115.458 529.933 C 115.821 530.520, 115.752 531, 115.304 531 C 114.856 531, 113.418 533.813, 112.108 537.250 C 110.799 540.688, 106.627 550.004, 102.838 557.954 C 96.921 570.368, 93.316 580.207, 92.562 586 C 92.455 586.825, 92.081 588.625, 91.730 590 C 91.159 592.243, 90.156 599.023, 89.579 604.550 C 89.461 605.678, 89.114 607.028, 88.809 607.550 C 88.503 608.073, 88.356 609.625, 88.481 611 C 88.607 612.375, 88.346 614.488, 87.901 615.695 C 87.456 616.902, 86.837 623.368, 86.527 630.063 C 85.871 644.216, 86.356 645.154, 96.134 648.616 C 99.820 649.922, 103.547 652.470, 108.275 656.916 C 119.160 667.156, 119.886 665.052, 119.970 623 C 120.028 594.099, 121.580 568.713, 124.678 546 C 127.937 522.109, 126.828 513.560, 121.554 521.915 M 682 525.826 C 682 527.930, 682.676 534.469, 683.503 540.356 C 686.924 564.731, 688.229 584.027, 688.921 620.500 C 689.775 665.514, 690.307 667.714, 697.990 658.012 C 700.216 655.202, 703.574 652.872, 709.362 650.122 C 728.244 641.152, 726.984 609.048, 705.747 558 C 693.477 528.506, 682 512.956, 682 525.826 M 244.035 576.306 C 235.237 579.336, 234.022 587.845, 239.643 607.052 C 244.991 625.329, 245.333 641.221, 241.102 675 C 237.429 704.329, 236.321 716.595, 235.547 736.500 C 235.226 744.750, 234.253 769.725, 233.383 792 C 231.794 832.722, 231.976 855.502, 234.140 887 C 234.726 895.525, 235.272 902.555, 235.353 902.621 C 235.584 902.812, 258.471 899.827, 258.746 899.571 C 260.973 897.493, 264.650 854.971, 265.497 821.500 C 265.817 808.850, 266.730 782.975, 267.526 764 C 269.705 712.038, 272.504 627.938, 272.469 615.500 C 272.389 587.231, 260.379 570.677, 244.035 576.306 M 551.121 577.121 C 538.416 583.549, 535.357 597.444, 536.948 641.500 C 537.544 658, 538.456 685.225, 538.976 702 C 539.496 718.775, 540.607 749.825, 541.446 771 C 542.284 792.175, 543.431 822.100, 543.994 837.500 C 544.945 863.492, 546.383 879.803, 548.950 893.688 C 550.926 904.378, 571.450 906.016, 572.349 895.556 C 574.494 870.617, 575.207 835.374, 574.127 807.707 C 573.500 791.643, 572.533 765.900, 571.978 750.500 C 570.789 717.519, 569.998 707.698, 565.900 675 C 561.667 641.224, 562.008 625.333, 567.357 607.052 C 574.657 582.109, 567.466 568.851, 551.121 577.121 M 228.859 670.500 C 222.945 685.023, 197.590 780.574, 192.526 807.423 C 182.163 862.366, 178.009 943.820, 185.934 936.672 C 194.613 928.845, 209.708 920.541, 218.950 918.511 C 222 917.841, 222 917.841, 222.001 841.171 C 222.001 754.400, 222.605 738.997, 227.573 699.129 C 231.361 668.723, 231.581 663.814, 228.859 670.500 M 578 672.307 C 578 673.209, 579.333 684.421, 580.963 697.223 C 586.116 737.705, 586.185 739.311, 586.704 830.708 C 587.198 917.916, 587.198 917.916, 592.456 919.444 C 601.685 922.127, 613.687 928.795, 618.996 934.188 C 625.547 940.843, 625.434 941.349, 624.693 908.628 C 623.538 857.583, 618.331 818.884, 606.357 772.351 C 603.265 760.333, 600.256 748.362, 599.670 745.750 C 599.084 743.138, 598.217 741, 597.744 741 C 597.270 741, 597.121 740.614, 597.413 740.141 C 598.140 738.964, 579.867 672.535, 578.416 671.083 C 578.187 670.854, 578 671.405, 578 672.307" stroke="none" fill="#99abc7" fill-rule="evenodd"/></svg>